<?xml version="1.0" encoding="utf-8"?>
<svg xmlns="http://www.w3.org/2000/svg" xmlns:xlink="http://www.w3.org/1999/xlink" version= "1.1" width="1591px" height="1590px" viewBox="140 -285 1591 1590">
<g id="layer1">
<g style="fill:rgb(255,255,255); fill-opacity:1.0; stroke-linejoin: miter">
<path d="M139.999,-286.4278C139.62059,-286.4278,139.25769,-286.27747,138.99011,-286.0099C138.72253,-285.7423,138.57222,-285.37943,138.57222,-285.001L138.57323,1305.0C138.57323,1305.788,139.21202,1306.4268,140.0,1306.4268L1731.001,1306.4277C1731.3794,1306.4277,1731.7423,1306.2775,1732.0099,1306.0099C1732.2775,1305.7423,1732.4277,1305.3794,1732.4277,1305.001L1732.4268,-285.0C1732.4268,-285.788,1731.788,-286.4268,1731.0,-286.4268L139.999,-286.4278 Z"/>
</g>
<g>
<g style="fill:#0077b6; fill-opacity:1.0; stroke-linejoin: miter">
<path d="M896.55536,130.0401C895.8592,130.10333,892.9475,130.38818,890.06744,130.64134C871.14185,132.44557,855.9826,134.88217,841.96234,138.42686C788.6354,151.9089,743.3465,177.03761,702.552,215.83818C692.39294,225.49112,684.13226,234.22606,676.91705,242.99228C657.5481,266.50717,640.3315,295.84482,630.2988,322.4293C620.70935,347.81125,613.3356,380.97858,612.1961,403.8918C611.59485,416.17126,611.9114,437.50235,612.86115,448.38943C613.0192,450.47797,613.5887,455.0354,614.1269,458.51685C620.64667,502.69757,635.80585,543.6504,658.94055,579.6026C660.9028,582.6726,662.5168,585.2676,662.5168,585.3308C662.5168,585.4259,659.06714,588.4642,654.858,592.10364C650.64923,595.74347,646.06006,599.7311,644.6358,600.9336C643.2433,602.1681,640.11017,604.85815,637.6733,606.94696C635.23645,609.03564,630.6158,613.0233,627.38763,615.83984C621.7543,620.7453,605.8033,634.51215,594.5998,644.13324C576.97205,659.29315,562.44543,671.1612,561.0214,671.5412C560.515,671.6674,558.2681,670.33844,551.5268,665.9076C540.60815,658.6599,513.51733,640.3357,494.30646,627.17017C488.00873,622.8345,475.98218,614.63745,467.40582,608.8458C453.89197,599.69965,452.8792,599.0981,448.67004,598.08527C445.8532,597.38934,440.72626,597.5791,438.226,598.402C435.63068,599.28796,431.39,602.7378,418.31915,614.7323C404.932,627.0118,399.64673,631.88574,391.64,639.3546C386.86093,643.817,380.87946,649.3874,378.31592,651.7292C372.01788,657.52094,356.63672,671.85724,353.31366,674.99036C348.02838,679.9908,328.15332,698.34686,321.50708,704.42303C312.29767,712.8102,309.7024,715.0255,309.0379,715.0255C307.9301,715.0255,300.36633,711.0062,291.12494,705.4679C279.6366,698.60016,276.85144,697.04944,276.5351,697.366C276.1552,697.74554,276.02875,715.3736,276.31348,728.76086L276.56665,741.1038L283.84583,745.47125C300.71417,755.6934,305.52484,758.0352,310.68347,758.63654C314.35474,759.07965,318.2475,758.0352,321.12726,755.7879C326.41266,751.6737,342.93304,736.8626,361.0675,719.93097C363.85272,717.30414,368.8531,712.6835,372.1447,709.6454C375.43573,706.6071,379.3603,702.9672,380.8476,701.5749C388.3167,694.5808,397.39972,686.13074,399.39355,684.2947C400.6278,683.1874,404.52057,679.5476,408.097,676.2566C430.0923,655.74866,443.76434,643.62726,446.328,642.23474C446.83435,641.98145,447.27747,642.04474,448.32184,642.5827C450.50555,643.6907,456.67712,647.64667,465.9815,653.9129C481.10938,664.10364,492.69257,672.0156,513.612,686.3839C532.0947,699.07495,544.3109,707.3666,548.9,710.34155C555.8941,714.8359,557.82477,715.5002,563.61646,715.2471C567.35095,715.08905,569.4397,714.61414,571.8768,713.3482C573.6175,712.4621,596.5619,692.99817,626.43805,667.0787C633.4323,660.9702,640.99603,654.4193,643.2118,652.52C645.427,650.5897,651.1872,645.6208,656.02936,641.4433C660.87115,637.2656,665.9667,632.86664,667.3908,631.6639C668.78357,630.4296,673.151,626.66345,677.0754,623.27716C680.9997,619.859,684.44946,616.8842,684.734,616.6628C685.17725,616.3147,685.62036,616.7575,688.40533,620.49194C706.2867,644.4814,732.5865,683.63025,741.00464,698.69495C752.1766,718.7599,764.1079,749.9651,770.7227,776.58093C777.68524,804.5265,779.6792,821.80646,780.4386,860.35406L780.6599,871.3677L916.17786,871.3675L1051.6958,871.36743L1051.886,852.7584C1052.0757,834.62396,1052.2336,830.6995,1053.2148,819.6225C1055.7151,791.804,1062.4243,763.1305,1073.2166,734.0144C1078.0586,720.9119,1086.3186,702.9038,1092.0151,693.0295C1096.0347,686.00366,1118.6001,654.2294,1146.3868,616.4412C1175.1552,577.29236,1184.3329,562.4173,1195.3783,537.00446C1208.0065,507.9511,1216.3297,475.60663,1219.5892,443.00864C1220.159,437.3755,1220.159,405.98068,1219.5892,400.28403C1218.7665,391.9919,1215.6962,372.59183,1214.1456,366.10385C1213.8925,364.9961,1213.9237,364.743,1214.557,364.17352C1214.9366,363.82516,1220.0319,359.10956,1225.8551,353.69778C1245.1613,335.8483,1256.0792,326.38553,1257.4083,326.38553C1258.8641,326.38553,1273.6129,336.2599,1327.0353,372.93997C1332.7948,376.89624,1339.1879,381.26343,1341.2767,382.6558C1343.3339,384.0169,1348.3341,387.3714,1352.4169,390.09317C1365.8988,399.14444,1366.8485,399.58752,1372.8617,399.61935C1377.0704,399.65106,1380.2987,398.92322,1382.5775,397.40408C1384.8561,395.91653,1416.473,369.2055,1429.6703,357.55902C1431.8851,355.66016,1435.6517,352.3687,1438.0565,350.27994C1440.4618,348.19113,1444.7662,344.4883,1447.5511,342.0511C1450.3678,339.61414,1455.0519,335.56363,1457.9948,333.03143C1460.9381,330.49957,1464.9894,327.0182,1466.983,325.2778C1469.0087,323.50528,1474.6422,318.6633,1479.5162,314.454C1484.39,310.24527,1490.8143,304.70648,1493.7892,302.11133C1496.7643,299.54785,1503.2201,293.94583,1508.1573,289.67358C1524.0131,276.00146,1536.4194,265.2412,1538.5076,263.37396L1540.5652,261.5698L1549.5847,270.4315C1560.2185,280.87534,1563.2251,283.5656,1563.605,282.93265C1564.4595,281.38187,1583.1636,207.26166,1586.9614,190.4567C1588.5125,183.43065,1589.1138,179.34827,1588.6389,178.87349C1588.3857,178.62038,1585.8225,179.18982,1579.303,180.9623C1564.27,185.04462,1533.5077,193.84274,1490.8141,206.2806C1488.8522,206.85039,1487.1432,207.38835,1487.048,207.48329C1486.13,208.40092,1490.2762,212.99005,1503.0299,225.11128C1508.6,230.42796,1513.1259,234.85872,1513.1259,234.98538C1513.0941,235.1119,1506.0995,241.22003,1497.5553,248.59396C1489.0419,255.9367,1478.5668,264.95636,1474.2938,268.62732C1470.0216,272.29883,1463.9764,277.48904,1460.8434,280.17914C1437.2023,300.56058,1414.922,319.8343,1409.8583,324.29657C1397.8636,334.8673,1373.431,354.9954,1371.5006,355.91318C1370.8673,356.1977,1369.0636,355.09033,1353.9359,344.9313C1344.663,338.72845,1334.757,332.01898,1331.8776,330.0884C1321.4652,322.99918,1308.6473,314.26425,1294.8485,304.8646C1263.6749,283.5971,1263.7384,283.62885,1259.4027,282.52118C1256.3011,281.69815,1251.87,281.76175,1249.0536,282.64777C1246.1105,283.56558,1244.2113,285.05325,1233.4508,294.70547C1227.7858,299.80087,1207.4994,318.47345,1204.6195,321.22678L1201.8978,323.85345L1201.0114,321.54312C1191.327,296.4779,1176.5475,270.84274,1159.268,249.16403C1144.076,230.11159,1121.7963,208.17949,1102.7435,193.58957C1101.6046,192.70349,1099.7689,191.27943,1098.6293,190.42473C1089.2301,183.20908,1077.5206,175.5819,1064.671,168.3345C1060.9366,166.2142,1045.7137,158.49199,1042.1376,156.90948C1009.7611,142.41443,979.0942,134.28088,944.50244,130.92618C936.78046,130.19827,934.62823,130.10332,916.96844,130.00833C906.4299,129.97688,897.25165,129.97688,896.55536,130.0401 Z M936.59076,163.08084C945.38885,163.61884,952.09845,164.28358,957.1937,165.13817C977.2586,168.36617,998.14624,174.12604,1015.71106,181.27853C1044.7325,193.08336,1069.4813,208.74887,1096.0975,232.20036C1103.4078,238.62491,1120.9415,255.99985,1125.7206,261.50674C1145.2789,284.07178,1159.5209,307.36456,1169.9645,333.88617C1175.9777,349.20386,1180.9149,367.49643,1183.6053,384.30142C1184.0482,387.1816,1184.5546,390.3779,1184.7128,391.4224C1186.3585,401.51813,1187.0231,419.20963,1186.295,433.70453C1184.7443,465.00452,1180.2506,486.3988,1169.6168,513.2365C1162.0526,532.3834,1152.5585,549.6004,1140.0255,566.94354C1132.715,577.0707,1120.5621,593.0849,1117.3339,596.7879C1116.6058,597.6107,1116.0367,598.59174,1116.0367,599.0032C1116.0367,600.07904,1112.9034,604.8898,1106.7631,613.1815C1091.0662,634.38574,1069.9883,666.9835,1057.1707,689.8647C1046.98,708.06256,1036.6943,733.2234,1030.3965,755.40826C1024.0667,777.7838,1020.6807,798.5766,1018.7187,826.90173C1018.4653,830.73126,1018.14886,834.78217,1018.05365,835.88965L1017.8637,837.91534L1001.2165,837.7255C992.07025,837.5989,984.53815,837.4404,984.475,837.3773C984.4118,837.31396,984.285,784.4613,984.1587,719.8993L983.9685,602.5162L1017.7369,535.0419C1036.2826,497.9187,1051.4738,467.37805,1051.4738,467.22C1051.4738,466.99832,1045.5238,466.9351,1033.7509,466.96655L1015.99603,467.06143L1005.45746,488.58237C999.66583,500.41882,992.9878,514.0907,990.6458,518.9644C981.91095,537.0359,967.4161,566.94336,959.0927,584.128L950.51605,601.788L950.5166,719.80457L950.51654,837.8203L916.6526,837.8202L882.78906,837.8201L882.7891,720.0575L882.789,602.2945L879.6559,595.585C876.6174,589.097,871.0157,577.41864,865.0654,565.17096C863.4514,561.848,860.1283,554.9486,857.6281,549.82135C855.15955,544.6944,848.95667,531.9403,843.86145,521.4965C838.76587,511.0525,830.8226,494.65866,826.2334,485.1011C821.6126,475.51172,817.6883,467.50482,817.49854,467.25174C817.21356,466.9033,814.3018,466.87183,800.34515,466.99835C791.1353,467.09338,783.2548,467.28326,782.8434,467.4414C782.14734,467.72632,783.0966,469.72012,815.6627,534.8834L849.2417,602.07306L849.242,719.9307L849.2422,837.82007L832.1519,837.82007C822.75244,837.8201,815.06195,837.6936,815.06195,837.5672C815.06195,836.1749,814.0491,818.4202,813.79565,815.5084C811.4539,788.3538,806.9283,765.8524,798.9529,741.92615C792.5283,722.71606,786.3886,709.0123,772.24176,682.4278C762.4305,663.94507,758.3162,656.761,753.8222,650.1468C751.67035,647.0136,733.44073,621.9793,725.81384,611.69385C725.1806,610.8078,720.6865,604.6997,715.8445,598.085C711.00214,591.47064,704.6725,582.95703,701.7923,579.1596C689.16516,562.5441,684.2277,555.23346,677.0121,542.3841C658.75085,509.8499,649.19305,477.47412,646.6612,439.84393C646.1865,432.8817,646.1864,413.19662,646.6612,406.2971C648.68665,376.45294,654.6995,352.21008,666.8843,324.4866C679.4489,295.93964,694.00714,274.60895,716.79364,251.41098C730.65546,237.2959,745.9097,223.62361,757.6829,214.79384C774.5518,202.10286,793.2874,191.40572,813.32086,183.01913C836.04425,173.52484,858.57764,167.41661,883.7382,163.9038C886.93463,163.4607,894.56165,162.85944,899.5622,162.6375C904.53125,162.44798,931.5902,162.76454,936.59076,163.08084 Z"/>
</g>
<g style="fill:#0077b6; fill-opacity:1.0; stroke-linejoin: miter">
<path d="M823.4484,906.1487C820.15717,906.2752,817.1504,906.497,816.7705,906.62335C816.1695,906.81323,816.07446,907.13,815.8848,910.5164C815.78973,912.5734,815.78973,919.7261,815.88477,926.46704L816.10657,938.6835L867.09174,938.8734C895.13214,938.9999,940.6422,939.0947,968.2077,939.0946L1018.3385,939.0944L1018.11676,922.7325C1017.9903,913.71265,1017.8321,906.30707,1017.80035,906.2754C1017.5789,906.05396,828.5757,905.95874,823.4484,906.1487 Z"/>
</g>
<g style="fill:#0077b6; fill-opacity:1.0; stroke-linejoin: miter">
<path d="M815.6947,990.3648L815.6946,1007.13837L916.96924,1007.13855L1018.2435,1007.1384L1018.2439,990.36505L1018.2438,973.5914L916.9693,973.5914L815.6948,973.5913L815.6947,990.3648 Z"/>
</g>
</g>
</g>
</svg>